# xmcd
#
# Track frame offsets:
#	182
#	12732
#	24802
#	39490
#	51550
#	61255
#	70482
#	82470
#	95250
#	107217
#	116780
#	129427
#	138935
#	149547
#	163535
#	176270
#	189875
#	200505
#	211860
#	221537
#
# Disc length: 3082
#
# Revision: 2
# Processed by: cddbd v1.5.1PL0 Copyright (c) Steve Scherf et al.
# Submitted via: dBpowerAMP V4.0
# Normalized: r0:TSWAP
#
DISCID=280c0814
DTITLE=Various Artist - Songs From The Golden West CD5
DYEAR=1900
DGENRE=Country
TTITLE0=Bobby Bare - Come Sundown
TTITLE1=Dave Dudley - Rollin' On - We Gone
TTITLE2=Ferlin Husky - There Goes My Everything
TTITLE3=Freddy Quinn - On Top Of Old Smoky
TTITLE4=George Kent - Let's Just Pretend
TTITLE5=Buddy Meredith - I'm Coming Back In Style
TTITLE6=Dave Dudley - South Bound And Down
TTITLE7=Jonny Hill - Oh My Darlin' Clementine
TTITLE8=Bobby Bare - IÄm Her Hoss If I Never Win A Race
TTITLE9=George Kent - Running With The Wind
TTITLE10=Bobby Lord - Looking For A Cold Lonely Winter
TTITLE11=Linda Manning - Smoking In Bed
TTITLE12=Freddy Quinn - The Yellow Rose Of Texas
TTITLE13=Dave Dudley - Morning Sun
TTITLE14=Dave Dudley - Salvation Arms
TTITLE15=Rick Johnson - If You Are Going To tulsa
TTITLE16=George Kent - You Wouldn't Want Me Now
TTITLE17=Bobby Bare - That's How I Got To Memphis
TTITLE18=Dave Dudley - Rolling On Your Track
TTITLE19=Ferlin Husky - Gone
EXTD=
EXTT0=
EXTT1=
EXTT2=
EXTT3=
EXTT4=
EXTT5=
EXTT6=
EXTT7=
EXTT8=
EXTT9=
EXTT10=
EXTT11=
EXTT12=
EXTT13=
EXTT14=
EXTT15=
EXTT16=
EXTT17=
EXTT18=
EXTT19=
PLAYORDER=
